# xmcd
#
# Track frame offsets: 
#        150
#        21984
#        36275
#        49658
#        59989
#        77657
#        94149
#        103363
#        115155
#        133271
#        147277
#        161242
#        170391
#        188792
#        200258
#        214222
#        228762
#        245871
#        263833
#        270909
#        283694
#        299878
#
# Disc length: 4231 seconds
#
# Revision: 0
# Processed by: cddbd v1.5.2PL0 Copyright (c) Steve Scherf et al.
# Submitted via: ExactAudioCopy v0.99pb4
#
DISCID=5e108516
DTITLE=Kapela "NET" - Hej sokoly
DYEAR=2001
DGENRE=Folklore
TTITLE0=Hej sokoly
TTITLE1=Tam nad Wisla
TTITLE2=Pognala wolki
TTITLE3=Milosc jest ozdoba
TTITLE4=Jestem sobie Krakowianka
TTITLE5=Granica
TTITLE6=Druciarz
TTITLE7=Czas do domu, czas
TTITLE8=Maly czerwony kwiat
TTITLE9=Wszystko sie zytko
TTITLE10=Zagraj mi piekny cyganie
TTITLE11=On zimny ona goraca
TTITLE12=Cyganeczka
TTITLE13=Chlopcy na mnie leca
TTITLE14=Wlazl kotek
TTITLE15=Bede wierny ci
TTITLE16=Moja zona w kraju
TTITLE17=I to i owo
TTITLE18=Zielony mosteczek
TTITLE19=Chlopcy krakowiacy
TTITLE20=Starej babie
TTITLE21=Siadla pszczolka
EXTD=
EXTT0=
EXTT1=
EXTT2=
EXTT3=
EXTT4=
EXTT5=
EXTT6=
EXTT7=
EXTT8=
EXTT9=
EXTT10=
EXTT11=
EXTT12=
EXTT13=
EXTT14=
EXTT15=
EXTT16=
EXTT17=
EXTT18=
EXTT19=
EXTT20=
EXTT21=
PLAYORDER=
